G04*
G04 #@! TF.GenerationSoftware,Altium Limited,Altium Designer,18.1.7 (191)*
G04*
G04 Layer_Color=16711935*
%FSLAX25Y25*%
%MOIN*%
G70*
G01*
G75*
%ADD13C,0.06706*%
%ADD14R,0.06706X0.06706*%
%ADD15C,0.24422*%
%ADD16C,0.05800*%
%ADD26R,0.12611X0.08674*%
%ADD27R,0.07099X0.03950*%
D13*
X360500Y267700D02*
D03*
Y257700D02*
D03*
Y247700D02*
D03*
Y237700D02*
D03*
Y227700D02*
D03*
Y217700D02*
D03*
Y207700D02*
D03*
Y197700D02*
D03*
Y187700D02*
D03*
Y177700D02*
D03*
Y167700D02*
D03*
Y157700D02*
D03*
Y147700D02*
D03*
Y137700D02*
D03*
Y127700D02*
D03*
X24500Y263300D02*
D03*
Y253300D02*
D03*
Y243300D02*
D03*
Y233300D02*
D03*
Y223300D02*
D03*
Y213300D02*
D03*
Y203300D02*
D03*
D14*
X360500Y117700D02*
D03*
X24500Y193300D02*
D03*
D15*
X373501Y95769D02*
D03*
X373186Y290230D02*
D03*
X12800D02*
D03*
Y95769D02*
D03*
X126186Y374088D02*
D03*
Y11911D02*
D03*
X260115Y374088D02*
D03*
Y11911D02*
D03*
D16*
X42400Y221000D02*
D03*
X41800Y210321D02*
D03*
D26*
X334895Y218443D02*
D03*
Y173364D02*
D03*
X39927Y281100D02*
D03*
Y245864D02*
D03*
X334895Y154543D02*
D03*
Y109464D02*
D03*
X39927Y230400D02*
D03*
Y195164D02*
D03*
X334895Y282343D02*
D03*
Y237264D02*
D03*
D27*
X347100Y188521D02*
D03*
Y198364D02*
D03*
Y208206D02*
D03*
Y183600D02*
D03*
Y193442D02*
D03*
Y203285D02*
D03*
X52132Y261021D02*
D03*
Y270864D02*
D03*
Y256100D02*
D03*
Y265943D02*
D03*
X347100Y124621D02*
D03*
Y134464D02*
D03*
Y144306D02*
D03*
Y119700D02*
D03*
Y129543D02*
D03*
Y139385D02*
D03*
X52132Y210321D02*
D03*
Y220164D02*
D03*
Y205400D02*
D03*
Y215243D02*
D03*
X347100Y252421D02*
D03*
Y262264D02*
D03*
Y272106D02*
D03*
Y247500D02*
D03*
Y257343D02*
D03*
Y267185D02*
D03*
M02*
