G04*
G04 #@! TF.GenerationSoftware,Altium Limited,Altium Designer,18.1.7 (191)*
G04*
G04 Layer_Physical_Order=2*
G04 Layer_Color=16711680*
%FSLAX25Y25*%
%MOIN*%
G70*
G01*
G75*
%ADD17C,0.03000*%
%ADD18C,0.05906*%
%ADD19R,0.05906X0.05906*%
%ADD20C,0.23622*%
%ADD21C,0.05000*%
%ADD22R,0.11811X0.07874*%
%ADD23R,0.06299X0.03150*%
%ADD24C,0.01500*%
%ADD25C,0.02000*%
G36*
X376100Y267500D02*
X376100Y249700D01*
X376100Y117500D01*
X354900Y96300D01*
X327700Y96300D01*
Y104227D01*
X342101D01*
Y114701D01*
X327700D01*
Y149305D01*
X342101D01*
Y159780D01*
X327700D01*
Y168127D01*
X342101D01*
Y178601D01*
X327700D01*
Y213206D01*
X342101D01*
Y223679D01*
X327700D01*
Y232027D01*
X342101D01*
Y242501D01*
X327700D01*
Y277105D01*
X342101D01*
Y287579D01*
X327700D01*
Y292800D01*
X350800D01*
X376100Y267500D01*
D02*
G37*
%LPC*%
G36*
X351550Y274981D02*
X342650D01*
Y269232D01*
Y264310D01*
Y259389D01*
Y254468D01*
Y249547D01*
X342950D01*
Y248500D01*
X347100D01*
Y247500D01*
X348100D01*
Y244925D01*
X350310D01*
Y235769D01*
X350310Y235769D01*
X350469Y234969D01*
X350922Y234291D01*
X356370Y228843D01*
X356357Y228810D01*
X356211Y227700D01*
X356357Y226590D01*
X356785Y225555D01*
X357467Y224667D01*
X358355Y223985D01*
X359390Y223557D01*
X360500Y223411D01*
X361610Y223557D01*
X362645Y223985D01*
X363533Y224667D01*
X364215Y225555D01*
X364643Y226590D01*
X364789Y227700D01*
X364643Y228810D01*
X364215Y229845D01*
X363533Y230733D01*
X362645Y231415D01*
X361610Y231843D01*
X360500Y231989D01*
X359390Y231843D01*
X359313Y231812D01*
X354490Y236635D01*
Y240101D01*
X354952Y240292D01*
X356379Y238865D01*
X356357Y238810D01*
X356211Y237700D01*
X356357Y236590D01*
X356785Y235555D01*
X357467Y234667D01*
X358355Y233985D01*
X359390Y233557D01*
X360500Y233411D01*
X361610Y233557D01*
X362645Y233985D01*
X363533Y234667D01*
X364215Y235555D01*
X364643Y236590D01*
X364789Y237700D01*
X364643Y238810D01*
X364215Y239845D01*
X363533Y240733D01*
X362645Y241415D01*
X361610Y241843D01*
X360500Y241989D01*
X359390Y241843D01*
X359335Y241821D01*
X357437Y243719D01*
X357475Y244040D01*
X357986Y244269D01*
X358355Y243985D01*
X359390Y243557D01*
X360500Y243411D01*
X361610Y243557D01*
X362645Y243985D01*
X363533Y244667D01*
X364215Y245555D01*
X364643Y246590D01*
X364789Y247700D01*
X364643Y248810D01*
X364215Y249845D01*
X363533Y250733D01*
X362645Y251415D01*
X362058Y251658D01*
X361978Y251778D01*
X360809Y252947D01*
X360988Y253475D01*
X361610Y253557D01*
X362645Y253985D01*
X363533Y254667D01*
X364215Y255555D01*
X364643Y256590D01*
X364789Y257700D01*
X364643Y258810D01*
X364215Y259845D01*
X363533Y260733D01*
X362645Y261415D01*
X361610Y261843D01*
X360500Y261989D01*
X360075Y261933D01*
X358713Y263296D01*
X358996Y263720D01*
X359390Y263557D01*
X360500Y263411D01*
X361610Y263557D01*
X362645Y263985D01*
X363533Y264667D01*
X364215Y265555D01*
X364643Y266590D01*
X364789Y267700D01*
X364643Y268810D01*
X364215Y269845D01*
X363533Y270733D01*
X362645Y271415D01*
X361610Y271843D01*
X360500Y271989D01*
X359390Y271843D01*
X359335Y271821D01*
X357572Y273584D01*
X356894Y274037D01*
X356094Y274197D01*
X356094Y274197D01*
X351550D01*
Y274981D01*
D02*
G37*
G36*
X346100Y246500D02*
X342950D01*
Y244925D01*
X346100D01*
Y246500D01*
D02*
G37*
G36*
X360500Y221989D02*
X359390Y221843D01*
X358355Y221415D01*
X357467Y220733D01*
X356785Y219845D01*
X356357Y218810D01*
X356251Y218007D01*
X349325Y211081D01*
X342650D01*
Y205331D01*
Y200410D01*
Y195489D01*
Y190568D01*
Y185646D01*
X342950D01*
Y184600D01*
X347100D01*
X351633D01*
X351712Y184633D01*
X356701Y179643D01*
X356357Y178810D01*
X356211Y177700D01*
X356357Y176590D01*
X356785Y175555D01*
X357467Y174667D01*
X358355Y173985D01*
X359390Y173557D01*
X360500Y173410D01*
X361610Y173557D01*
X362645Y173985D01*
X363533Y174667D01*
X364215Y175555D01*
X364643Y176590D01*
X364789Y177700D01*
X364643Y178810D01*
X364215Y179845D01*
X363533Y180733D01*
X362645Y181415D01*
X361610Y181843D01*
X360500Y181990D01*
X360294Y181962D01*
X359135Y183121D01*
X359370Y183523D01*
X359409Y183554D01*
X360500Y183411D01*
X361610Y183557D01*
X362645Y183985D01*
X363533Y184667D01*
X364215Y185555D01*
X364643Y186590D01*
X364789Y187700D01*
X364643Y188810D01*
X364215Y189845D01*
X363533Y190733D01*
X362645Y191415D01*
X361610Y191843D01*
X360500Y191990D01*
X359390Y191843D01*
X359335Y191821D01*
X356235Y194921D01*
X355557Y195374D01*
X354757Y195533D01*
X354757Y195533D01*
X351550D01*
Y196274D01*
X356488D01*
X356785Y195555D01*
X357467Y194667D01*
X358355Y193985D01*
X359390Y193557D01*
X360500Y193411D01*
X361610Y193557D01*
X362645Y193985D01*
X363533Y194667D01*
X364215Y195555D01*
X364643Y196590D01*
X364789Y197700D01*
X364643Y198810D01*
X364215Y199845D01*
X363533Y200733D01*
X362645Y201415D01*
X361610Y201843D01*
X360500Y201990D01*
X359390Y201843D01*
X358355Y201415D01*
X357467Y200733D01*
X357253Y200454D01*
X351550D01*
Y201810D01*
X356700D01*
X356700Y201810D01*
X357500Y201969D01*
X358178Y202422D01*
X359335Y203579D01*
X359390Y203557D01*
X360500Y203411D01*
X361610Y203557D01*
X362645Y203985D01*
X363533Y204667D01*
X364215Y205555D01*
X364643Y206590D01*
X364789Y207700D01*
X364643Y208810D01*
X364215Y209845D01*
X363533Y210733D01*
X362645Y211415D01*
X361610Y211843D01*
X360500Y211989D01*
X359390Y211843D01*
X358355Y211415D01*
X357467Y210733D01*
X356785Y209845D01*
X356357Y208810D01*
X356211Y207700D01*
X356357Y206590D01*
X356379Y206535D01*
X355834Y205990D01*
X351550D01*
Y207394D01*
X358234Y214078D01*
X358355Y213985D01*
X359390Y213557D01*
X360500Y213411D01*
X361610Y213557D01*
X362645Y213985D01*
X363533Y214667D01*
X364215Y215555D01*
X364643Y216590D01*
X364789Y217700D01*
X364643Y218810D01*
X364215Y219845D01*
X363533Y220733D01*
X362645Y221415D01*
X361610Y221843D01*
X360500Y221989D01*
D02*
G37*
G36*
X351250Y182600D02*
X348100D01*
Y181025D01*
X351250D01*
Y182600D01*
D02*
G37*
G36*
X346100D02*
X342950D01*
Y181025D01*
X346100D01*
Y182600D01*
D02*
G37*
G36*
X360500Y171990D02*
X359390Y171843D01*
X358355Y171415D01*
X357467Y170733D01*
X356785Y169845D01*
X356357Y168810D01*
X356211Y167700D01*
X356357Y166590D01*
X356379Y166535D01*
X348122Y158278D01*
X347669Y157600D01*
X347510Y156800D01*
X347510Y156800D01*
Y147181D01*
X342650D01*
Y141431D01*
Y136510D01*
Y131589D01*
Y126668D01*
Y121747D01*
X342950D01*
Y120700D01*
X347100D01*
X351250D01*
Y121747D01*
X351550D01*
Y122531D01*
X355621D01*
X355621Y122531D01*
X356421Y122690D01*
X357099Y123143D01*
X358121Y124165D01*
X358355Y123985D01*
X359390Y123557D01*
X360500Y123410D01*
X361610Y123557D01*
X362645Y123985D01*
X363533Y124667D01*
X364215Y125555D01*
X364643Y126590D01*
X364789Y127700D01*
X364643Y128810D01*
X364215Y129845D01*
X363533Y130733D01*
X362645Y131415D01*
X361610Y131843D01*
X360500Y131990D01*
X359390Y131843D01*
X358355Y131415D01*
X357467Y130733D01*
X356785Y129845D01*
X356357Y128810D01*
X356281Y128237D01*
X354755Y126711D01*
X351550D01*
Y127452D01*
X352343D01*
X352343Y127452D01*
X353142Y127611D01*
X353820Y128065D01*
X359335Y133579D01*
X359390Y133557D01*
X360500Y133411D01*
X361610Y133557D01*
X362354Y133865D01*
X362447Y133883D01*
X362526Y133936D01*
X362645Y133985D01*
X362948Y134218D01*
X363208Y134392D01*
X363319Y134503D01*
X363533Y134667D01*
X364215Y135555D01*
X364643Y136590D01*
X364789Y137700D01*
X364643Y138810D01*
X364215Y139845D01*
X363533Y140733D01*
X362645Y141415D01*
X361610Y141843D01*
X360500Y141990D01*
X359841Y141903D01*
X359408Y142253D01*
X359383Y142689D01*
X360151Y143456D01*
X360500Y143411D01*
X361610Y143557D01*
X362645Y143985D01*
X363533Y144667D01*
X364215Y145555D01*
X364643Y146590D01*
X364789Y147700D01*
X364643Y148810D01*
X364215Y149845D01*
X363533Y150733D01*
X362645Y151415D01*
X361610Y151843D01*
X360500Y151989D01*
X359390Y151843D01*
X358355Y151415D01*
X357467Y150733D01*
X356785Y149845D01*
X356357Y148810D01*
X355890Y148926D01*
Y151034D01*
X358699Y153843D01*
X359390Y153557D01*
X360500Y153410D01*
X361610Y153557D01*
X362645Y153985D01*
X363533Y154667D01*
X364215Y155555D01*
X364643Y156590D01*
X364789Y157700D01*
X364643Y158810D01*
X364215Y159845D01*
X363533Y160733D01*
X362645Y161415D01*
X361610Y161843D01*
X360500Y161989D01*
X359390Y161843D01*
X358355Y161415D01*
X357467Y160733D01*
X356785Y159845D01*
X356357Y158810D01*
X356211Y157700D01*
X356261Y157317D01*
X352322Y153378D01*
X352190Y153181D01*
X351690Y153332D01*
Y155934D01*
X359335Y163579D01*
X359390Y163557D01*
X360500Y163410D01*
X361610Y163557D01*
X362645Y163985D01*
X363533Y164667D01*
X364215Y165555D01*
X364643Y166590D01*
X364789Y167700D01*
X364643Y168810D01*
X364215Y169845D01*
X363533Y170733D01*
X362645Y171415D01*
X361610Y171843D01*
X360500Y171990D01*
D02*
G37*
G36*
X364453Y121653D02*
X361500D01*
Y118700D01*
X364453D01*
Y121653D01*
D02*
G37*
G36*
X359500D02*
X356547D01*
Y118700D01*
X359500D01*
Y121653D01*
D02*
G37*
G36*
X351250Y118700D02*
X348100D01*
Y117125D01*
X351250D01*
Y118700D01*
D02*
G37*
G36*
X346100D02*
X342950D01*
Y117125D01*
X346100D01*
Y118700D01*
D02*
G37*
G36*
X364453Y116700D02*
X361500D01*
Y113747D01*
X364453D01*
Y116700D01*
D02*
G37*
G36*
X359500D02*
X356547D01*
Y113747D01*
X359500D01*
Y116700D01*
D02*
G37*
%LPD*%
D17*
X27143Y265943D02*
X52132D01*
X24500Y263300D02*
X27143Y265943D01*
X24400Y242400D02*
X25700D01*
X24400Y232400D02*
Y242400D01*
X36361Y256100D02*
X52132D01*
X24500Y243300D02*
Y244239D01*
X36361Y256100D01*
X27636Y220164D02*
X52132D01*
X24500Y223300D02*
X27636Y220164D01*
X24500Y213300D02*
X26821Y215621D01*
X51753D01*
X31521Y210321D02*
X41800D01*
X24500Y203300D02*
X31521Y210321D01*
X34357Y205021D02*
X51753D01*
X24500Y195164D02*
X34357Y205021D01*
X51753Y215621D02*
X52132Y215243D01*
X24500Y193300D02*
Y195164D01*
X51753Y205021D02*
X52132Y205400D01*
X41800Y210321D02*
X52132D01*
Y215243D02*
X56358D01*
X59100Y212500D01*
Y207800D02*
Y212500D01*
X56700Y205400D02*
X59100Y207800D01*
X52132Y205400D02*
X56700D01*
X24200Y223300D02*
X24500D01*
X52132Y265943D02*
Y270864D01*
X24500Y253300D02*
Y263300D01*
X52132Y256100D02*
Y261021D01*
D18*
X360500Y267700D02*
D03*
Y257700D02*
D03*
Y247700D02*
D03*
Y237700D02*
D03*
Y227700D02*
D03*
Y217700D02*
D03*
Y207700D02*
D03*
Y197700D02*
D03*
Y187700D02*
D03*
Y177700D02*
D03*
Y167700D02*
D03*
Y157700D02*
D03*
Y147700D02*
D03*
Y137700D02*
D03*
Y127700D02*
D03*
X24500Y263300D02*
D03*
Y253300D02*
D03*
Y243300D02*
D03*
Y233300D02*
D03*
Y223300D02*
D03*
Y213300D02*
D03*
Y203300D02*
D03*
D19*
X360500Y117700D02*
D03*
X24500Y193300D02*
D03*
D20*
X373501Y95769D02*
D03*
X373186Y290230D02*
D03*
X12800D02*
D03*
Y95769D02*
D03*
X126186Y374088D02*
D03*
Y11911D02*
D03*
X260115Y374088D02*
D03*
Y11911D02*
D03*
D21*
X42400Y221000D02*
D03*
X41800Y210321D02*
D03*
D22*
X334895Y218443D02*
D03*
Y173364D02*
D03*
X39927Y281100D02*
D03*
Y245864D02*
D03*
X334895Y154543D02*
D03*
Y109464D02*
D03*
X39927Y230400D02*
D03*
Y195164D02*
D03*
X334895Y282343D02*
D03*
Y237264D02*
D03*
D23*
X347100Y188521D02*
D03*
Y198364D02*
D03*
Y208206D02*
D03*
Y183600D02*
D03*
Y193442D02*
D03*
Y203285D02*
D03*
X52132Y261021D02*
D03*
Y270864D02*
D03*
Y256100D02*
D03*
Y265943D02*
D03*
X347100Y124621D02*
D03*
Y134464D02*
D03*
Y144306D02*
D03*
Y119700D02*
D03*
Y129543D02*
D03*
Y139385D02*
D03*
X52132Y210321D02*
D03*
Y220164D02*
D03*
Y205400D02*
D03*
Y215243D02*
D03*
X347100Y252421D02*
D03*
Y262264D02*
D03*
Y272106D02*
D03*
Y247500D02*
D03*
Y257343D02*
D03*
Y267185D02*
D03*
D24*
X359007Y229163D02*
X361963D01*
X352300Y249100D02*
Y250253D01*
X350131Y252421D02*
X352300Y250253D01*
X347579Y252421D02*
X350131D01*
X352400Y235769D02*
Y249000D01*
X352300Y249100D02*
X352400Y249000D01*
Y235769D02*
X359007Y229163D01*
X360437Y239162D02*
X361963D01*
X352697Y254143D02*
Y255003D01*
X350358Y257343D02*
X352697Y255003D01*
X355200Y243000D02*
Y251640D01*
X352697Y254143D02*
X355200Y251640D01*
X347100Y257343D02*
X350358D01*
X345500D02*
X347100D01*
X346836Y262264D02*
X347700Y261400D01*
X355497Y255303D02*
X360500Y250300D01*
X355497Y255303D02*
Y257556D01*
X351653Y261400D02*
X355497Y257556D01*
X347700Y261400D02*
X351653D01*
X355200Y243000D02*
X360500Y237700D01*
X347100Y208206D02*
X349406D01*
X345500D02*
X347100D01*
X358900Y217700D02*
X360500D01*
X349406Y208206D02*
X358900Y217700D01*
X360500Y177700D02*
Y178800D01*
X350779Y188521D02*
X360500Y178800D01*
X347100Y188521D02*
X350779D01*
X349600Y145000D02*
Y156800D01*
X348906Y144306D02*
X349600Y145000D01*
X347100Y144306D02*
X348906D01*
X349600Y156800D02*
X360500Y167700D01*
X353800Y143033D02*
Y151900D01*
X350152Y139385D02*
X353800Y143033D01*
X350189Y134464D02*
X355497Y139772D01*
X347100Y134464D02*
X350189D01*
X355497Y139772D02*
Y139772D01*
X357100Y141375D02*
Y143361D01*
X355497Y139772D02*
X357100Y141375D01*
Y143361D02*
X360630Y146891D01*
X347100Y139385D02*
X350152D01*
X345500Y134464D02*
X347100D01*
X345500Y144306D02*
X347100D01*
X360500Y257700D02*
Y258553D01*
X351868Y267185D02*
X360500Y258553D01*
X345500Y267185D02*
X351868D01*
X345500Y124621D02*
X355621D01*
X358700Y127700D01*
X360500D01*
X352343Y129543D02*
X360500Y137700D01*
X345500Y129543D02*
X352343D01*
X353800Y151900D02*
X359600Y157700D01*
X360500D01*
X360630Y146891D02*
Y147570D01*
X354757Y193442D02*
X360500Y187700D01*
X345500Y193442D02*
X354757D01*
X359836Y198364D02*
X360500Y197700D01*
X345500Y198364D02*
X359836D01*
X356700Y203900D02*
X360500Y207700D01*
X346115Y203900D02*
X356700D01*
X345500Y203285D02*
X346115Y203900D01*
X345500Y262264D02*
X346836D01*
X360500Y247700D02*
Y250300D01*
X356094Y272106D02*
X360500Y267700D01*
X345500Y272106D02*
X356094D01*
D25*
X361550Y136050D02*
X361900Y136400D01*
M02*
