G04*
G04 #@! TF.GenerationSoftware,Altium Limited,Altium Designer,18.1.7 (191)*
G04*
G04 Layer_Color=2752767*
%FSLAX25Y25*%
%MOIN*%
G70*
G01*
G75*
%ADD29C,0.00200*%
%ADD30C,0.00267*%
D29*
X359700Y266900D02*
Y268500D01*
X361300D01*
Y266900D01*
X359700D01*
Y256900D02*
Y258500D01*
X361300D01*
Y256900D01*
X359700D01*
Y246900D02*
Y248500D01*
X361300D01*
Y246900D01*
X359700D01*
Y236900D02*
Y238500D01*
X361300D01*
Y236900D01*
X359700D01*
Y226900D02*
Y228500D01*
X361300D01*
Y226900D01*
X359700D01*
Y216900D02*
Y218500D01*
X361300D01*
Y216900D01*
X359700D01*
Y206900D02*
Y208500D01*
X361300D01*
Y206900D01*
X359700D01*
Y196900D02*
Y198500D01*
X361300D01*
Y196900D01*
X359700D01*
Y186900D02*
Y188500D01*
X361300D01*
Y186900D01*
X359700D01*
Y176900D02*
Y178500D01*
X361300D01*
Y176900D01*
X359700D01*
Y166900D02*
Y168500D01*
X361300D01*
Y166900D01*
X359700D01*
Y156900D02*
Y158500D01*
X361300D01*
Y156900D01*
X359700D01*
Y146900D02*
Y148500D01*
X361300D01*
Y146900D01*
X359700D01*
Y136900D02*
Y138500D01*
X361300D01*
Y136900D01*
X359700D01*
Y126900D02*
Y128500D01*
X361300D01*
Y126900D01*
X359700D01*
Y116900D02*
Y118500D01*
X361300D01*
Y116900D01*
X359700D01*
X23700Y262500D02*
Y264100D01*
X25300D01*
Y262500D01*
X23700D01*
Y252500D02*
Y254100D01*
X25300D01*
Y252500D01*
X23700D01*
Y242500D02*
Y244100D01*
X25300D01*
Y242500D01*
X23700D01*
Y232500D02*
Y234100D01*
X25300D01*
Y232500D01*
X23700D01*
Y222500D02*
Y224100D01*
X25300D01*
Y222500D01*
X23700D01*
Y212500D02*
Y214100D01*
X25300D01*
Y212500D01*
X23700D01*
Y202500D02*
Y204100D01*
X25300D01*
Y202500D01*
X23700D01*
Y192500D02*
Y194100D01*
X25300D01*
Y192500D01*
X23700D01*
X42400Y220200D02*
X41600Y221800D01*
X43200D01*
X42400Y220200D01*
X41800Y209521D02*
X41000Y211121D01*
X42600D01*
X41800Y209521D01*
D30*
X374301Y95769D02*
G03*
X374301Y95769I-800J0D01*
G01*
X373986Y290230D02*
G03*
X373986Y290230I-800J0D01*
G01*
X13600D02*
G03*
X13600Y290230I-800J0D01*
G01*
Y95769D02*
G03*
X13600Y95769I-800J0D01*
G01*
X126986Y374088D02*
G03*
X126986Y374088I-800J0D01*
G01*
Y11911D02*
G03*
X126986Y11911I-800J0D01*
G01*
X260915Y374088D02*
G03*
X260915Y374088I-800J0D01*
G01*
Y11911D02*
G03*
X260915Y11911I-800J0D01*
G01*
M02*
