M48
;Layer_Color=9474304
;FILE_FORMAT=2:5
INCH,LZ
;TYPE=PLATED
T1F00S00C0.02800
T2F00S00C0.03543
T3F00S00C0.13780
%
T01
X00418Y0210321
X00424Y0221
T02
X00245Y01933
Y02033
Y02133
Y02233
Y02333
Y02433
Y02533
X03605Y02577
Y02477
Y02377
Y02277
Y02177
Y02077
Y01977
Y01877
Y01777
Y01677
Y01577
Y01477
Y01377
Y01277
Y01177
Y02677
X00245Y02633
T03
X0260115Y0011911
X0373501Y0095769
X0126186Y0011911
X00128Y0095769
X0260115Y0374088
X0373186Y029023
X0126186Y0374088
X00128Y029023
M30
